<?xml version="1.0" standalone="no"?>
<!DOCTYPE svg PUBLIC "-//W3C//DTD SVG 20010904//EN"
 "http://www.w3.org/TR/2001/REC-SVG-20010904/DTD/svg10.dtd">
<svg version="1.0" xmlns="http://www.w3.org/2000/svg"
 width="145.000000pt" height="145.000000pt" viewBox="0 0 145.000000 145.000000"
 preserveAspectRatio="xMidYMid meet">
<metadata>
Created by potrace 1.14, written by Peter Selinger 2001-2017
</metadata>
<g transform="translate(0.000000,145.000000) scale(0.100000,-0.100000)"
fill="#000000" stroke="none">
<path d="M175 1394 c-40 -96 -48 -140 -49 -284 -1 -80 -5 -151 -10 -158 -5 -9
3 -12 28 -12 32 0 39 6 74 58 22 31 60 76 85 100 59 53 38 54 -37 2 -31 -22
-59 -40 -61 -40 -3 0 -5 32 -5 71 0 92 26 209 47 209 8 0 44 -14 78 -30 47
-22 81 -50 128 -100 l64 -70 39 17 c54 24 280 25 340 1 l40 -16 61 67 c58 64
163 131 205 131 8 0 20 -17 27 -37 13 -40 28 -243 18 -243 -3 0 -32 18 -63 40
-75 52 -96 51 -37 -2 25 -24 63 -69 85 -100 35 -52 42 -58 74 -58 23 0 33 4
28 11 -3 6 -7 77 -8 157 -2 130 -6 157 -30 230 -15 46 -34 86 -42 89 -43 16
-205 -60 -283 -133 l-60 -55 -93 10 c-64 7 -122 7 -186 0 l-94 -10 -51 48
c-64 60 -105 86 -191 118 -90 34 -103 33 -121 -11z"/>
<path d="M115 912 l-100 -17 -3 -33 c-2 -23 4 -41 21 -62 18 -21 27 -47 32
-92 10 -88 40 -152 93 -198 130 -115 363 -84 458 60 14 21 38 71 53 112 25 68
29 73 56 73 27 0 31 -5 56 -73 33 -89 67 -142 113 -177 115 -87 299 -86 398 3
48 43 88 122 88 172 0 50 16 100 40 126 15 15 20 32 18 55 -3 32 -4 33 -73 47
-42 9 -135 15 -235 16 -158 1 -168 0 -240 -27 -152 -57 -174 -57 -330 -1 -65
24 -92 28 -210 30 -93 2 -166 -2 -235 -14z m178 -199 c-42 -82 -80 -152 -84
-157 -4 -5 -21 13 -38 39 l-31 48 57 109 57 108 58 0 57 0 -76 -147z m756 -10
c-45 -87 -84 -160 -86 -162 -2 -3 -20 11 -40 32 l-37 36 65 125 64 126 58 0
59 0 -83 -157z m-535 139 c3 -5 -32 -80 -78 -168 -79 -152 -84 -159 -116 -162
l-32 -3 88 170 c74 143 92 171 111 171 12 0 24 -4 27 -8z m747 -2 c18 -10 14
-21 -64 -170 -80 -157 -83 -160 -115 -160 l-32 0 87 170 c49 93 92 170 96 170
5 0 17 -5 28 -10z"/>
<path d="M35 644 c7 -106 27 -182 73 -274 20 -41 38 -78 40 -81 1 -3 -16 -11
-39 -18 -53 -16 -46 -23 9 -9 37 9 45 8 62 -7 16 -15 18 -21 7 -33 -10 -13 -9
-15 7 -9 12 5 26 1 38 -9 17 -16 17 -18 2 -36 -19 -21 -13 -24 15 -6 16 9 27
6 67 -20 27 -17 54 -35 59 -40 6 -4 55 -23 110 -42 96 -34 105 -35 245 -35
134 1 151 3 220 29 41 15 85 28 98 29 12 1 22 5 22 9 0 4 25 24 56 44 50 33
58 36 78 24 62 -38 68 -40 33 -8 -38 33 -38 34 -18 52 18 16 21 16 51 1 18 -9
34 -14 37 -11 3 2 -9 12 -27 21 -31 16 -31 17 -14 36 14 16 26 19 54 15 33 -5
33 -5 10 6 -14 7 -26 13 -28 14 -1 1 15 35 37 75 41 76 64 153 76 249 7 60 -5
60 -24 -2 -7 -20 -27 -56 -44 -80 -18 -24 -47 -72 -65 -108 -18 -36 -40 -75
-51 -87 -19 -22 -19 -22 -128 2 -13 3 -23 11 -23 18 0 7 -7 22 -15 33 -14 18
-14 17 -9 -12 6 -30 5 -31 -28 -26 -35 5 -30 -12 7 -21 17 -4 17 -5 -4 -6 -21
-1 -22 -3 -10 -18 13 -15 12 -15 -8 -5 -34 19 -51 14 -25 -8 23 -19 17 -35 -8
-19 -23 13 -30 11 -23 -9 6 -16 5 -16 -14 1 -15 13 -22 15 -25 6 -5 -16 -54 0
-125 41 -41 24 -53 36 -53 55 0 41 17 72 44 79 28 7 33 25 14 44 -16 16 -140
16 -156 0 -20 -20 -14 -35 17 -46 23 -8 31 -19 37 -46 3 -20 4 -42 1 -50 -3
-8 -40 -31 -82 -52 -57 -28 -78 -35 -84 -25 -6 9 -11 8 -21 -4 -7 -8 -17 -15
-22 -15 -6 0 -5 7 2 15 15 18 7 19 -22 4 -29 -16 -34 -2 -7 20 30 25 5 29 -29
5 -26 -18 -30 -8 -4 13 15 13 15 14 -10 10 -15 -2 -25 0 -22 4 3 5 14 9 24 9
10 0 22 5 26 12 5 8 -3 9 -31 5 -37 -6 -37 -6 -31 23 7 39 -2 38 -19 -2 -12
-29 -20 -34 -71 -44 -68 -14 -74 -10 -127 96 -18 36 -49 90 -70 121 -23 34
-43 81 -52 120 l-15 64 5 -81z m323 -336 c-3 -7 -21 -19 -41 -27 -31 -12 -39
-12 -53 0 -15 12 -12 15 32 26 65 15 66 15 62 1z m805 -4 c34 -6 37 -8 24 -21
-13 -14 -20 -13 -61 2 -47 18 -64 42 -23 32 12 -3 39 -9 60 -13z m-376 -36
l57 -32 -35 -15 c-44 -18 -125 -20 -166 -2 -18 7 -33 16 -33 20 0 8 92 60 108
60 7 1 38 -13 69 -31z m-417 3 c0 -6 -10 -17 -22 -25 -17 -12 -25 -13 -36 -3
-12 10 -10 13 14 24 36 15 44 16 44 4z m749 -2 c32 -11 40 -24 19 -32 -14 -5
-68 23 -68 35 0 11 11 10 49 -3z m-722 -57 c-10 -9 -23 -12 -38 -7 l-22 7 24
18 c17 14 27 16 37 8 11 -9 10 -14 -1 -26z m689 22 c23 -15 23 -17 7 -30 -15
-11 -21 -9 -41 9 -17 15 -19 23 -10 29 17 10 15 10 44 -8z m-632 -22 c2 -4 -2
-15 -9 -26 -10 -13 -20 -16 -36 -11 l-23 8 23 18 c25 20 37 23 45 11z m147
-19 c74 -39 161 -39 239 -1 60 28 110 29 143 0 26 -23 21 -38 -21 -55 -113
-45 -332 -49 -449 -7 -35 12 -63 25 -63 29 0 19 33 50 58 54 15 2 30 5 34 6 3
0 30 -11 59 -26z m442 9 c15 -16 15 -19 -3 -29 -15 -10 -21 -8 -34 12 -9 13
-16 27 -16 30 0 12 38 3 53 -13z"/>
<path d="M455 390 c-8 -13 4 -32 16 -25 12 8 12 35 0 35 -6 0 -13 -4 -16 -10z"/>
<path d="M532 388 c6 -18 28 -21 28 -4 0 9 -7 16 -16 16 -9 0 -14 -5 -12 -12z"/>
<path d="M880 384 c0 -17 22 -14 28 4 2 7 -3 12 -12 12 -9 0 -16 -7 -16 -16z"/>
<path d="M962 386 c1 -10 8 -17 13 -17 15 1 12 24 -3 29 -9 3 -13 -2 -10 -12z"/>
<path d="M607 373 c-12 -11 -8 -23 8 -23 8 0 15 7 15 15 0 16 -12 20 -23 8z"/>
<path d="M810 366 c0 -9 7 -16 16 -16 17 0 14 22 -4 28 -7 2 -12 -3 -12 -12z"/>
<path d="M500 346 c0 -9 7 -16 16 -16 17 0 14 22 -4 28 -7 2 -12 -3 -12 -12z"/>
<path d="M916 353 c-11 -11 -6 -23 9 -23 8 0 15 4 15 9 0 13 -16 22 -24 14z"/>
<path d="M562 328 c6 -18 28 -21 28 -4 0 9 -7 16 -16 16 -9 0 -14 -5 -12 -12z"/>
<path d="M850 324 c0 -17 22 -14 28 4 2 7 -3 12 -12 12 -9 0 -16 -7 -16 -16z"/>
</g>
</svg>
